<svg width="769" height="399" viewBox="0 0 769 399" fill="none" xmlns="http://www.w3.org/2000/svg">
<path fill-rule="evenodd" clip-rule="evenodd" d="M15.8735 261.447C15.8735 261.447 -1.66632 253.901 1.30914 241.053C1.30914 241.053 33.8463 234.65 56.8157 220.404C79.785 206.158 131.225 186.308 141.531 167.788C151.837 149.267 167.845 127.509 195.313 129.717C222.782 131.925 252.929 61.7115 406.314 40.412C559.699 19.1134 662.371 42.8938 741.273 76.8494C820.175 110.804 918.367 210.743 939.327 263.712C960.286 316.68 926.018 305.661 852.422 240.635C778.826 175.609 654.185 158.266 545.863 219.756C437.541 281.245 393.567 304.699 289.789 320.466C186.01 336.235 94.6622 327.141 52.934 312.515C18.0068 300.276 6.49811 293.317 5.2309 282.57C3.96375 271.824 15.8735 261.447 15.8735 261.447Z" fill="url(#paint0_linear_0_243)"/>
<path fill-rule="evenodd" clip-rule="evenodd" d="M31.7877 286.962C49.2786 286.961 69.9306 279.172 96.6965 262.674C117.477 249.862 170.559 228.277 170.559 228.277C170.559 228.277 170.479 228.276 170.319 228.276C167.214 228.276 134.719 228.676 104.961 245.032C78.6119 259.513 35.6389 260.614 23.1706 260.614C20.9321 260.614 19.6805 260.579 19.6805 260.579C19.6805 260.579 -0.209396 281.948 21.7104 286.046C24.9598 286.655 28.3056 286.962 31.7877 286.962Z" fill="#1F1D79"/>
<path fill-rule="evenodd" clip-rule="evenodd" d="M66.6168 316.828C66.6168 316.828 80.3254 321.745 93.8896 317.869C98.4057 316.577 98.0607 311.283 103.652 308.538C109.411 305.703 117.376 308.374 124.042 303.439C128.101 300.431 130.62 290.568 134.935 286.612C142.483 279.707 157.235 278.586 165.994 273.923C172.082 270.678 171.85 263.34 178.548 261.101C187.114 258.236 193.107 260.175 202.7 258.836C207.409 258.178 211.219 253.589 219.088 252.932C228.256 252.168 237.04 256.868 242.687 256.868C256.452 256.868 260.791 249.771 271.524 250.965C348.409 259.52 431.465 234.082 464.413 203.927C497.36 173.772 533.743 137.445 591.757 148.865C649.771 160.286 659.936 184.076 659.936 184.076C659.936 184.076 596.818 191.839 545.666 219.656C494.513 247.472 402.972 319.724 269.27 331.644C135.561 343.565 66.6168 316.828 66.6168 316.828Z" fill="url(#paint1_linear_0_243)"/>
<path fill-rule="evenodd" clip-rule="evenodd" d="M506.26 41.0856C506.26 41.0856 569.164 10.8043 589.15 2.44329C609.136 -5.91774 597.98 7.77797 604.903 34.3879C611.826 60.9987 506.26 41.0856 506.26 41.0856Z" fill="url(#paint2_linear_0_243)"/>
<path fill-rule="evenodd" clip-rule="evenodd" d="M3.08578 242.598C-0.829529 272.317 64.8726 254.921 78.3276 251.083C100.704 244.696 122.359 235.9 145.033 230.495C168.709 224.851 190.412 226.505 214.425 228.434C226.308 229.389 240.252 230.42 251.669 226.513C263.006 222.635 269.585 213.268 274.487 203.023C275.234 201.456 276.293 203.289 275.915 204.356C272.594 213.835 267.732 221.299 258.986 226.843C248.717 233.35 235.414 232.881 223.732 232.568C208.071 232.146 192.61 228.905 176.901 229.466C161.713 230.009 146.806 233.324 132.268 237.562C115.234 242.525 -6.96732 288.547 1.37683 241.836C1.70578 240.041 3.27032 241.207 3.08578 242.598Z" fill="white"/>
<path fill-rule="evenodd" clip-rule="evenodd" d="M230.431 195.907C228.461 196.047 227.616 198.291 227.416 200.068C227.217 201.887 227.664 203.894 228.82 205.32C231.396 208.493 235.28 206.386 236.588 203.191C237.401 201.213 237.497 198.776 236.325 196.923C235.264 195.246 233.43 194.592 231.563 195.149C229.673 195.711 228.15 197.353 227.568 199.259C227.225 200.412 227.145 201.682 227.424 202.86C227.783 204.383 228.772 204.832 230.144 205.169C232.919 205.851 235.232 203.99 235.591 201.163C235.902 198.787 234.881 195.682 232.098 196.044C230.782 196.216 230.343 198.443 230.423 199.495C230.519 200.75 231.173 201.953 232.52 201.778C232.074 201.836 231.906 201.429 231.874 201.022C232.01 200.501 232.146 199.98 232.281 199.46C232.52 199.278 232.465 199.27 232.114 199.438C231.372 199.423 230.75 199.375 230.04 199.082C230.375 199.568 230.702 200.054 231.029 200.54C231.053 200.647 231.037 200.829 231.021 200.937C230.965 201.158 230.902 201.378 230.838 201.598C230.886 201.518 230.925 201.437 230.965 201.355C230.822 201.422 231.205 201.166 231.316 201.088C231.779 200.758 232.401 200.54 232.967 200.655C233.158 200.693 233.374 200.745 233.541 200.862C233.645 200.937 233.924 201.251 233.757 201.124C233.677 201.06 233.781 200.837 233.741 200.767C233.82 200.906 233.621 201.148 233.741 200.864C233.629 201.131 233.693 201.127 233.477 201.34C232.696 202.117 231.516 202.346 230.758 201.365C230.479 201.004 230.351 200.481 230.367 200.241C230.391 199.83 230.854 199.141 231.133 198.64C231.476 198.04 231.595 195.825 230.431 195.907Z" fill="#B6B3D9"/>
<path fill-rule="evenodd" clip-rule="evenodd" d="M223.519 200.259C226.004 197.913 229.968 196.655 233.38 197.308C237.343 198.071 238.83 201.002 241.331 203.666C242.103 204.487 242.704 202.991 242.672 202.403C242.444 198.196 238.805 194.84 234.793 193.808C229.936 192.556 225.655 194.827 222.926 198.722C222.625 199.152 222.772 200.963 223.519 200.259Z" fill="white"/>
<path fill-rule="evenodd" clip-rule="evenodd" d="M231.365 191.497C233.486 191.436 235.484 191.591 237.416 192.577C239.39 193.583 240.307 195.15 241.74 196.693C242.535 197.55 243.239 195.993 243.165 195.339C242.543 190.006 235.828 186.848 231.209 189.375C230.636 189.69 230.472 191.523 231.365 191.497Z" fill="white"/>
<path fill-rule="evenodd" clip-rule="evenodd" d="M233.148 204.901C230.516 204.901 230.631 198.933 233.296 198.933C235.928 198.933 235.822 204.901 233.148 204.901Z" fill="white"/>
<path fill-rule="evenodd" clip-rule="evenodd" d="M571.357 160.878C532.477 163.351 504.273 187.846 475.592 211.589C448.609 233.926 419.945 249.472 386.011 258.591C354.232 267.13 321.007 271.792 288.288 274.862C256.178 277.875 222.52 279.132 191.493 268.939C190.586 268.641 190.867 266.479 191.95 266.748C225.463 275.099 260.853 273.736 294.928 270.063C328.546 266.438 362.693 261.642 395.094 251.756C411.104 246.871 426.737 240.544 441.199 232.074C457.03 222.804 470.932 210.832 485.005 199.174C509.247 179.094 538.04 157.187 571.395 159.287C572.106 159.332 572.062 160.833 571.357 160.878Z" fill="white"/>
<path fill-rule="evenodd" clip-rule="evenodd" d="M592.725 171.473C529.308 167.921 487.746 221.434 438.048 251.238C413.274 266.095 385.449 273.597 357.477 279.871C327.717 286.546 297.507 291.487 267.058 293.52C230.986 295.928 195.661 293.567 160.367 285.772C159.308 285.539 159.413 283.147 160.423 283.354C223.344 296.175 289.127 290.545 351.406 277.016C380.974 270.593 410.698 263.096 436.892 247.436C462.361 232.211 484.021 211.642 508.654 195.216C533.398 178.716 562.4 165.839 592.765 169.823C593.489 169.918 593.461 171.515 592.725 171.473Z" fill="white"/>
<path fill-rule="evenodd" clip-rule="evenodd" d="M138.465 301.372C204.063 312.897 271.536 306.092 336.492 293.379C365.486 287.705 394.226 280.084 421.524 268.679C449.599 256.949 474.146 240.616 497.933 221.861C520.353 204.183 543.472 186.397 572.623 182.527C573.674 182.388 573.662 184.835 572.562 184.999C543.424 189.353 520.157 207.96 497.795 225.799C475.613 243.494 452.761 258.848 426.654 270.247C371.363 294.39 309.246 303.826 249.494 308.875C212.418 312.008 174.596 312.161 138.233 303.457C137.455 303.272 137.632 301.224 138.465 301.372Z" fill="white"/>
<path fill-rule="evenodd" clip-rule="evenodd" d="M119.37 314.814C144.078 317.052 168.201 321.559 193.133 322.154C217.985 322.748 242.413 320.163 267.153 318.509C267.642 318.477 267.666 319.625 267.233 319.72C243.086 324.975 217.673 325.67 193.061 325.082C168.818 324.503 142.603 323.212 119.194 316.345C118.649 316.184 118.745 314.757 119.37 314.814Z" fill="#E0E0E0"/>
<path fill-rule="evenodd" clip-rule="evenodd" d="M382.75 212.748C383.849 222.18 396.043 256.909 428.281 284.644C456.402 308.837 518.369 324.401 523.445 309.429C532.517 282.672 452.824 247.629 450.485 209.593C448.147 171.558 377.045 163.836 382.75 212.748Z" fill="url(#paint3_linear_0_243)"/>
<path fill-rule="evenodd" clip-rule="evenodd" d="M371.614 188.515C381.037 198.051 384.971 209.269 388.972 221.852C393.471 236.004 398.857 249.483 407.542 261.655C427.451 289.56 456.493 302.079 488.633 310.673C495.176 312.422 507.082 316.686 514.253 314.867C530.818 310.663 517.235 291.201 511.249 284.706C500.971 273.558 487.499 265.708 476.611 255.166C467.066 245.925 458.816 235.421 453.121 223.371C449.22 215.118 446.412 206.438 441.508 198.675C436.189 190.256 429.321 183.004 422.547 175.762C421.929 175.101 422.448 172.893 423.366 173.774C433.131 183.138 442.213 193.07 448.086 205.393C455.417 220.773 461.507 234.521 473.462 247.065C489.312 263.696 518.621 276.539 523.956 300.802C530.002 328.294 495.607 317.198 480.965 313.019C453.774 305.26 429.653 294.272 411.179 272.163C402.342 261.587 395.369 249.517 390.67 236.56C384.913 220.685 382.812 202.735 371.132 189.681C370.787 189.288 371.092 187.986 371.614 188.515Z" fill="white"/>
<path fill-rule="evenodd" clip-rule="evenodd" d="M269.461 109.25C264.693 107.435 260.101 108.761 256.348 111.591C248.196 115.048 238.435 122.621 241.899 132.002C245.66 142.186 262.237 136.639 268.405 132.258C272.678 129.223 275.862 125.025 275.99 119.572C276.11 114.991 273.742 110.882 269.461 109.25Z" fill="url(#paint4_linear_0_243)"/>
<path fill-rule="evenodd" clip-rule="evenodd" d="M311.375 97.5741C306.832 98.4523 302.41 100.483 299.432 103.92C296.051 105.663 293.04 107.98 290.805 110.816C287.892 114.499 287.295 121.164 291.071 124.483C294.792 127.747 300.126 125.947 304.241 124.574C313.683 121.425 329.928 114.516 324.723 101.655C322.488 96.1248 316.298 96.6226 311.375 97.5741Z" fill="url(#paint5_linear_0_243)"/>
<path fill-rule="evenodd" clip-rule="evenodd" d="M304.645 91.085C306.799 88.3853 307.546 80.9891 302.845 80.2578C297.396 79.4099 290.991 81.4939 286.908 85.5034C283.54 87.4963 281.017 91.1127 279.747 94.9186C279.152 96.6904 279.297 102.693 282.624 102.443C291.312 101.791 299.204 97.8853 304.645 91.085Z" fill="url(#paint6_linear_0_243)"/>
<path fill-rule="evenodd" clip-rule="evenodd" d="M351.834 64.9376C349.225 64.255 346.729 64.8541 344.577 66.1784C336.678 66.306 328.698 72.1477 323.577 77.4368C321.072 80.0188 320.976 86.3434 324.323 88.3046C330.192 91.7432 336.686 91.5339 343.092 89.7412C349.057 88.0712 356.458 85.9215 358.481 79.3892C360.207 73.8394 357.999 66.5474 351.834 64.9376Z" fill="url(#paint7_linear_0_243)"/>
<path fill-rule="evenodd" clip-rule="evenodd" d="M410.392 57.5839C405.896 54.1904 399.801 52.502 394.447 53.4988C386.025 53.1454 377.264 56.8164 379.925 66.932C382.808 77.8949 401.488 74.8911 408.942 71.3973C413.975 69.0377 414.799 60.9118 410.392 57.5839Z" fill="url(#paint8_linear_0_243)"/>
<path fill-rule="evenodd" clip-rule="evenodd" d="M368.652 108.556L368.532 108.709C368.348 109.082 368.396 109.333 368.652 108.556ZM384.521 99.6781C381.453 107.932 373.504 114.857 364.2 112.543C361.264 112.939 358.882 108.569 359.516 105.265C360.558 99.857 363.334 95.358 368.122 92.4936C371.964 90.1964 376.44 89.1521 380.874 90.0063C384.835 90.7699 385.699 96.5114 384.521 99.6781Z" fill="url(#paint9_linear_0_243)"/>
<path fill-rule="evenodd" clip-rule="evenodd" d="M432.128 80.6694C428.115 79.1068 423.825 78.5155 419.607 79.7094C418.982 79.8869 418.396 80.14 417.852 80.4501C415.99 80.6373 414.135 81.3065 412.541 82.3252C408.849 84.6847 408.932 91.724 412.333 94.188C418.175 98.421 426.715 97.7534 431.916 92.7788C433.714 91.0596 434.636 88.9965 434.644 86.449C434.648 84.6333 434.151 81.4567 432.128 80.6694Z" fill="url(#paint10_linear_0_243)"/>
<path fill-rule="evenodd" clip-rule="evenodd" d="M456.048 45.7296C450.535 42.8869 441.168 42.0353 435.425 45.7304C433.499 46.2418 431.701 47.4521 430.353 49.2759C429.038 51.0523 428.361 55.328 430.843 56.5608C439.242 60.7368 448.013 59.73 455.889 54.9195C458.442 53.3602 458.942 47.2213 456.048 45.7296Z" fill="url(#paint11_linear_0_243)"/>
<path fill-rule="evenodd" clip-rule="evenodd" d="M491.696 59.4993C485.794 55.9079 473.507 53.0503 468.859 59.7255L468.726 59.8291C466.696 61.6988 464.958 67.8419 468.558 69.2958C475.738 72.1932 483.372 72.4481 490.636 69.6582C494.233 68.2768 495.066 61.5483 491.696 59.4993Z" fill="url(#paint12_linear_0_243)"/>
<path fill-rule="evenodd" clip-rule="evenodd" d="M228.939 124.583C225.961 123.884 222.75 124.676 220.786 126.663C216.569 128.74 213.02 131.863 210.139 135.691C208.594 137.743 207.813 143.631 211.531 144.093C219.869 145.128 227.885 140.057 231.024 132.433C232.054 129.923 232.4 125.398 228.939 124.583Z" fill="url(#paint13_linear_0_243)"/>
<path fill-rule="evenodd" clip-rule="evenodd" d="M519.739 49.3892C515.115 45.0728 508.182 43.5837 502.142 45.7367C498.82 46.9206 498.281 52.9226 501.192 54.7688C506.059 57.8549 513.311 60.7165 518.422 56.7381C518.616 56.5863 518.791 56.4017 518.948 56.1972C520.957 55.1012 521.219 50.7712 519.739 49.3892Z" fill="url(#paint14_linear_0_243)"/>
<defs>
<linearGradient id="paint0_linear_0_243" x1="473.187" y1="32.3267" x2="473.187" y2="328.738" gradientUnits="userSpaceOnUse">
<stop stop-color="#1B18F9"/>
<stop offset="0.463542" stop-color="#1B18F9"/>
<stop offset="1" stop-color="#E146AD"/>
</linearGradient>
<linearGradient id="paint1_linear_0_243" x1="363.276" y1="146.713" x2="363.276" y2="334.706" gradientUnits="userSpaceOnUse">
<stop stop-color="#8491FF"/>
<stop offset="1" stop-color="#FF84CE"/>
</linearGradient>
<linearGradient id="paint2_linear_0_243" x1="555.744" y1="0" x2="555.744" y2="48.2414" gradientUnits="userSpaceOnUse">
<stop stop-color="#1B18F9"/>
<stop offset="0.463542" stop-color="#1B18F9"/>
<stop offset="1" stop-color="#E146AD"/>
</linearGradient>
<linearGradient id="paint3_linear_0_243" x1="453.294" y1="178.543" x2="453.294" y2="315.31" gradientUnits="userSpaceOnUse">
<stop stop-color="#1B18F9"/>
<stop offset="0.463542" stop-color="#1B18F9"/>
<stop offset="1" stop-color="#E146AD"/>
</linearGradient>
<linearGradient id="paint4_linear_0_243" x1="258.588" y1="108.419" x2="258.588" y2="137.761" gradientUnits="userSpaceOnUse">
<stop stop-color="#E1E5FF"/>
<stop offset="1" stop-color="#7C8AFD"/>
</linearGradient>
<linearGradient id="paint5_linear_0_243" x1="307.078" y1="96.98" x2="307.078" y2="126.323" gradientUnits="userSpaceOnUse">
<stop stop-color="#E1E5FF"/>
<stop offset="1" stop-color="#7C8AFD"/>
</linearGradient>
<linearGradient id="paint6_linear_0_243" x1="292.903" y1="80.0707" x2="292.903" y2="102.451" gradientUnits="userSpaceOnUse">
<stop stop-color="#E1E5FF"/>
<stop offset="1" stop-color="#7C8AFD"/>
</linearGradient>
<linearGradient id="paint7_linear_0_243" x1="340.399" y1="64.6534" x2="340.399" y2="91.0121" gradientUnits="userSpaceOnUse">
<stop stop-color="#E1E5FF"/>
<stop offset="1" stop-color="#7C8AFD"/>
</linearGradient>
<linearGradient id="paint8_linear_0_243" x1="396.349" y1="53.2147" x2="396.349" y2="74.6" gradientUnits="userSpaceOnUse">
<stop stop-color="#E1E5FF"/>
<stop offset="1" stop-color="#7C8AFD"/>
</linearGradient>
<linearGradient id="paint9_linear_0_243" x1="372.21" y1="89.7102" x2="372.21" y2="112.995" gradientUnits="userSpaceOnUse">
<stop stop-color="#E1E5FF"/>
<stop offset="1" stop-color="#7C8AFD"/>
</linearGradient>
<linearGradient id="paint10_linear_0_243" x1="422.21" y1="79.076" x2="422.21" y2="96.98" gradientUnits="userSpaceOnUse">
<stop stop-color="#E1E5FF"/>
<stop offset="1" stop-color="#7C8AFD"/>
</linearGradient>
<linearGradient id="paint11_linear_0_243" x1="443.596" y1="43.268" x2="443.596" y2="59.1827" gradientUnits="userSpaceOnUse">
<stop stop-color="#E1E5FF"/>
<stop offset="1" stop-color="#7C8AFD"/>
</linearGradient>
<linearGradient id="paint12_linear_0_243" x1="480.15" y1="55.7014" x2="480.15" y2="71.616" gradientUnits="userSpaceOnUse">
<stop stop-color="#E1E5FF"/>
<stop offset="1" stop-color="#7C8AFD"/>
</linearGradient>
<linearGradient id="paint13_linear_0_243" x1="220.293" y1="124.333" x2="220.293" y2="144.227" gradientUnits="userSpaceOnUse">
<stop stop-color="#E1E5FF"/>
<stop offset="1" stop-color="#7C8AFD"/>
</linearGradient>
<linearGradient id="paint14_linear_0_243" x1="509.989" y1="44.76" x2="509.989" y2="58.6854" gradientUnits="userSpaceOnUse">
<stop stop-color="#E1E5FF"/>
<stop offset="1" stop-color="#7C8AFD"/>
</linearGradient>
</defs>
</svg>
