<svg width="28" height="28" viewBox="0 0 28 28" fill="none" xmlns="http://www.w3.org/2000/svg">
<path d="M14 27.3333C6.63599 27.3333 0.666656 21.364 0.666656 14C0.666656 6.636 6.63599 0.666668 14 0.666668C21.364 0.666668 27.3333 6.636 27.3333 14C27.3333 21.364 21.364 27.3333 14 27.3333ZM14 24.6667C16.829 24.6667 19.5421 23.5429 21.5425 21.5425C23.5429 19.5421 24.6667 16.829 24.6667 14C24.6667 11.171 23.5429 8.45792 21.5425 6.45753C19.5421 4.45714 16.829 3.33333 14 3.33333C11.171 3.33333 8.45791 4.45714 6.45752 6.45753C4.45713 8.45792 3.33332 11.171 3.33332 14C3.33332 16.829 4.45713 19.5421 6.45752 21.5425C8.45791 23.5429 11.171 24.6667 14 24.6667ZM12.1627 9.22L18.668 13.556C18.7411 13.6047 18.8011 13.6707 18.8426 13.7482C18.8841 13.8256 18.9058 13.9121 18.9058 14C18.9058 14.0879 18.8841 14.1744 18.8426 14.2519C18.8011 14.3293 18.7411 14.3953 18.668 14.444L12.1613 18.78C12.0811 18.8332 11.988 18.8637 11.8918 18.8682C11.7957 18.8727 11.7001 18.8512 11.6152 18.8058C11.5303 18.7604 11.4593 18.6929 11.4097 18.6104C11.36 18.528 11.3337 18.4336 11.3333 18.3373V9.66267C11.3335 9.5662 11.3598 9.47159 11.4095 9.38891C11.4592 9.30623 11.5304 9.23857 11.6155 9.19315C11.7006 9.14773 11.7964 9.12623 11.8928 9.13096C11.9891 9.13569 12.0824 9.16646 12.1627 9.22Z" fill="url(#paint0_linear_0_464)"/>
<defs>
<linearGradient id="paint0_linear_0_464" x1="14" y1="0.666668" x2="14" y2="27.3333" gradientUnits="userSpaceOnUse">
<stop stop-color="#1B18F9"/>
<stop offset="0.463542" stop-color="#1B18F9"/>
<stop offset="1" stop-color="#E146AD"/>
</linearGradient>
</defs>
</svg>
